<svg width="36" height="48" viewBox="0 0 36 48" fill="none" xmlns="http://www.w3.org/2000/svg">
<g opacity="0.85">
<path d="M27 32.5C25.1009 36.729 23.9734 39.1635 19.5 46C17.4485 40.2839 15.3284 37.223 10 32L18.5 32.5C21.7892 32.5648 23.6696 33.0508 27 32.5Z" fill="#FFBB25"/>
<path d="M35 18C32.9693 22.8149 31.3654 25.6509 27.5 31C26.8898 26.4991 26.1422 24.0862 24 20C20.8115 23.2886 17.5 27 18.5 31C19.5 35 13.8022 17.919 13 18H18.5C26.3945 19.7285 30.4103 20.1113 35 18Z" fill="#FFBB25"/>
<path d="M13 18C9.27159 18.3245 5 18 1.5 17C3.15951 22.6965 6 27 10 32C9.87714 26.6468 10.1181 22.0669 13 18Z" fill="#FFBB25"/>
<path d="M13 18C9.27159 18.3245 5 18 1.5 17C3.15951 22.6965 6 27 10 32M13 18C13.8022 17.919 19.5 35 18.5 31C17.5 27 20.8115 23.2886 24 20C26.1422 24.0862 26.8898 26.4991 27.5 31C31.3654 25.6509 32.9693 22.8149 35 18C30.4103 20.1113 26.3945 19.7285 18.5 18M13 18C10.1181 22.0669 9.87714 26.6468 10 32M13 18H18.5M10 32C15.3284 37.223 17.4485 40.2839 19.5 46C23.9734 39.1635 25.1009 36.729 27 32.5C23.6696 33.0508 21.7892 32.5648 18.5 32.5L10 32ZM18.5 18C18.6239 11.8616 18.5695 7.91966 18.5 1" stroke="#FFBB25"/>
</g>
</svg>
