<svg width="32" height="28" viewBox="0 0 32 28" fill="none" xmlns="http://www.w3.org/2000/svg">
<path d="M25.2277 0.580078C26.6337 3.08797 27.8935 4.26658 30.7277 6.08008C28.5843 5.52677 27.3807 5.52966 25.2277 6.18877C25.8652 4.3714 25.8403 3.12943 25.2277 0.580078Z" fill="#FFBB25" fill-opacity="0.5"/>
<path d="M16.2277 3.58008C11.2634 5.07195 8.17274 4.99649 2.22766 3.58008C4.99228 11.3554 4.83369 16.3418 2.22766 26.0801C11.2098 24.7848 16.2455 24.6319 25.2277 26.0801C23.982 21.7438 23.8831 19.4253 25.2277 15.5801M16.2277 15.5801C20.305 12.5641 22.3922 10.643 25.2277 6.18877M25.2277 6.18877C25.8652 4.3714 25.8403 3.12943 25.2277 0.580078C26.6337 3.08797 27.8935 4.26658 30.7277 6.08008C28.5843 5.52677 27.3807 5.52966 25.2277 6.18877Z" stroke="#D8D2C3" stroke-width="2"/>
</svg>
