<svg width="26" height="14" viewBox="0 0 26 14" fill="none" xmlns="http://www.w3.org/2000/svg">
<path d="M12.9999 8.41208C9.12469 8.41208 6.40356 6.4833 4.6209 4.50256C3.72898 3.51153 3.08265 2.51767 2.65983 1.77152C2.4489 1.39928 2.2949 1.09099 2.19484 0.878739C2.14483 0.772665 2.10839 0.690773 2.08513 0.637099C2.0735 0.61027 2.06517 0.590509 2.0601 0.578317C2.05757 0.572222 2.05585 0.568019 2.05493 0.565791C2.05448 0.564669 2.05422 0.564033 2.05417 0.563899C2.05409 0.563715 2.05414 0.563849 2.05417 0.563899C2.05422 0.564033 2.05448 0.564669 2.05493 0.565791C2.05504 0.566059 2.05461 0.565021 1.27716 0.875993C0.499704 1.18697 0.499848 1.18733 0.500004 1.18772C0.499865 1.18737 0.500074 1.1879 0.500004 1.18772C0.500283 1.18841 0.500993 1.19018 0.501376 1.19114C0.502143 1.19303 0.503118 1.19544 0.504303 1.19834C0.506674 1.20415 0.509884 1.21197 0.513941 1.22172C0.522055 1.24121 0.533559 1.26847 0.548507 1.30295C0.578398 1.37194 0.622094 1.46995 0.68003 1.59284C0.79584 1.8385 0.968922 2.18439 1.20282 2.59717C1.66967 3.42103 2.38401 4.52053 3.37611 5.62286C5.36149 7.82884 8.50176 10.0868 12.9999 10.0868V8.41208ZM24.7228 0.875993C23.9454 0.565004 23.9454 0.564719 23.9456 0.564451C23.9456 0.564401 23.9456 0.564535 23.9456 0.564451C23.9445 0.566695 23.9424 0.572222 23.9399 0.578317C23.9348 0.590492 23.9265 0.610254 23.9147 0.637099C23.8916 0.690773 23.8551 0.772665 23.805 0.878723C23.7051 1.09099 23.551 1.39927 23.3402 1.77152C22.9173 2.51767 22.2709 3.51153 21.3789 4.50256C19.5964 6.4833 16.8752 8.41208 12.9999 8.41208V10.0868C17.4982 10.0868 20.6384 7.82884 22.6237 5.62286C23.616 4.52053 24.3302 3.42103 24.7971 2.59717C25.0311 2.18441 25.2041 1.8385 25.32 1.59284C25.3779 1.46995 25.4215 1.37195 25.4514 1.30297C25.4663 1.26847 25.4779 1.24121 25.4859 1.22172C25.4901 1.21197 25.4933 1.20415 25.4956 1.19834C25.4968 1.19544 25.4978 1.19303 25.4985 1.19114C25.499 1.19018 25.4993 1.18936 25.4995 1.18867C25.4993 1.18884 25.4997 1.18832 25.4995 1.18867C25.4997 1.18827 25.5002 1.18698 24.7228 0.875993ZM13.8373 13.4361L13.8373 9.24943H12.1626L12.1626 13.4361H13.8373ZM2.70659 10.6789L6.05596 7.32948L4.87179 6.14531L1.52241 9.49469L2.70659 10.6789ZM19.9439 7.32948L23.2933 10.6789L24.4776 9.49469L21.1282 6.14531L19.9439 7.32948Z" fill="#D8D2C3"/>
</svg>
