<svg width="136" height="72" viewBox="0 0 136 72" fill="none" xmlns="http://www.w3.org/2000/svg">
<path d="M49.2048 32.7328C47.5021 33.122 46.7052 33.6048 45.5294 34.8771V37.6341C46.6711 38.2126 47.4404 38.5458 49.2048 39.1657C50.6999 39.6606 51.5384 39.5594 53.0334 39.1657C54.0096 38.7528 54.4507 38.4595 54.718 37.6341C55.0514 36.5575 55.1343 35.9537 54.718 34.8771C54.5629 34.1103 54.3118 33.6573 53.0334 32.7328C51.7217 32.4995 50.9979 32.3538 49.2048 32.7328Z" fill="#FFBB25" fill-opacity="0.5"/>
<path d="M45.5294 34.8771H10V37.6341H45.5294M45.5294 34.8771C46.7052 33.6048 47.5021 33.122 49.2048 32.7328C50.9979 32.3538 51.7217 32.4995 53.0334 32.7328C54.3118 33.6573 54.5629 34.1103 54.718 34.8771C55.1343 35.9537 55.0514 36.5575 54.718 37.6341C54.4507 38.4595 54.0096 38.7528 53.0334 39.1657C51.5384 39.5594 50.6999 39.6606 49.2048 39.1657C47.4404 38.5458 46.6711 38.2126 45.5294 37.6341M45.5294 34.8771V37.6341" stroke="#FFBB25"/>
<path fill-rule="evenodd" clip-rule="evenodd" d="M117.418 1L121.094 13.7672C123.89 16.5209 124.267 18.183 125.472 21.2601L127.244 23.492C128.166 25.9175 128.44 27.4149 128.463 30.3472L130.568 32.5791C131.855 34.7507 132.124 36.5871 132.452 40.072L135 42.1445C130.568 45.1096 133.881 49.105 120.486 61.2752C120.486 61.2752 119.713 63.9145 120.486 65.3823C121.988 68.2344 125.472 71 125.472 71H108.077C108.077 71 111.371 67.8788 112.509 65.3823C113.582 63.8082 112.509 61.2752 112.509 61.2752C94.7213 46.0685 101.097 45.589 96 42.1445L98.7699 40.072C99.3569 36.7867 99.7162 34.9782 101.097 32.5791L102.98 30.3472C103.263 27.4119 103.735 25.8955 105.307 23.492L106.969 21.2601C108.204 17.8628 109.087 16.1393 111.401 13.7672L115.18 1H117.418ZM118.217 32.5791C117.568 31.948 117.214 31.4932 116.619 30.3472C116.1 31.2801 115.792 31.7799 115.18 32.5791C116.033 33.4135 116.231 34.725 116.619 36.9589C116.916 34.7872 117.053 33.5287 118.217 32.5791ZM125.472 30.3472C124.262 30.5714 123.583 30.5639 122.373 30.3472C123.67 31.9631 123.75 33.7976 123.971 36.9589C124.007 33.9248 124.277 32.4287 125.472 30.3472ZM106.969 30.3472C108.285 30.8881 108.958 30.868 110.067 30.3472C109.356 32.2333 109.02 33.5895 108.683 36.0674C108.681 36.4006 108.623 36.6516 108.567 36.9589C108.606 36.6456 108.645 36.3492 108.683 36.0674C108.689 35.2684 108.377 33.9973 106.969 30.3472ZM118.217 21.2601C117.529 20.1507 117.173 19.1797 116.619 16.5023C115.852 18.7624 115.489 19.8982 115.18 21.2601H118.217Z" fill="#FFBB25" fill-opacity="0.3"/>
<path d="M108.683 36.0674C109.02 33.5894 109.356 32.2333 110.067 30.3472C108.958 30.868 108.285 30.8881 106.969 30.3472C108.377 33.9973 108.689 35.2684 108.683 36.0674ZM108.683 36.0674C108.681 36.4006 108.623 36.6516 108.567 36.9589C108.606 36.6456 108.645 36.3492 108.683 36.0674ZM117.418 1L121.094 13.7672C123.89 16.5209 124.267 18.183 125.472 21.2601L127.244 23.492C128.166 25.9175 128.44 27.4149 128.463 30.3472L130.568 32.5791C131.855 34.7507 132.124 36.5871 132.452 40.072L135 42.1445C130.568 45.1096 133.881 49.105 120.486 61.2752C120.486 61.2752 119.713 63.9145 120.486 65.3823C121.988 68.2344 125.472 71 125.472 71H108.077C108.077 71 111.371 67.8788 112.509 65.3823C113.582 63.8082 112.509 61.2752 112.509 61.2752C94.7213 46.0685 101.097 45.589 96 42.1445L98.7699 40.072C99.3569 36.7867 99.7162 34.9782 101.097 32.5791L102.98 30.3472C103.263 27.4119 103.735 25.8955 105.307 23.492L106.969 21.2601C108.204 17.8628 109.087 16.1393 111.401 13.7672L115.18 1H117.418ZM116.619 30.3472C117.214 31.4932 117.568 31.948 118.217 32.5791C117.053 33.5287 116.916 34.7872 116.619 36.9589C116.231 34.725 116.033 33.4135 115.18 32.5791C115.792 31.7799 116.1 31.2801 116.619 30.3472ZM122.373 30.3472C123.583 30.5639 124.262 30.5714 125.472 30.3472C124.277 32.4287 124.007 33.9248 123.971 36.9589C123.75 33.7976 123.67 31.9631 122.373 30.3472ZM116.619 16.5023C117.173 19.1797 117.529 20.1507 118.217 21.2601H115.18C115.489 19.8982 115.852 18.7624 116.619 16.5023Z" stroke="#FFBB25"/>
</svg>
