<svg width="326" height="175" viewBox="0 0 326 175" fill="none" xmlns="http://www.w3.org/2000/svg">
<path d="M187.383 1.23365C234.244 0.204693 260.245 2.4991 306.248 6.66928L321.525 9.66861C325.23 15.3828 325.681 18.7005 324.253 24.754C316.406 33.1274 310.93 35.0248 300.495 36.6718C291.551 36.193 285.508 36.9692 285.164 27.7576C256.288 60.5018 245.643 103.828 225.494 144.549C231.234 144.252 233.482 144.525 235.41 145.998C240.379 148.192 242.197 149.635 243.23 152.714C245.167 156.879 245.36 159.931 245.543 165.506C243.942 169.166 240.193 170.923 230.777 173.766C226.021 174.453 221.116 173.958 209.625 172.001C170.594 162.536 146.172 158.383 93.7712 152.302C129.887 78.1419 149.809 25.3481 187.383 1.23365Z" fill="#FFBB25" fill-opacity="0.5"/>
<path fill-rule="evenodd" clip-rule="evenodd" d="M85.8955 63.7912C80.998 53.1679 72.8628 36.6775 72.8628 36.6775C55.195 20.6811 42.5074 13.4375 18.6944 1.25106C9.94838 3.25686 5.98891 5.25817 1.73526 11.4313C38.5462 29.3728 57.3052 40.8246 85.8955 63.7912ZM80.3595 63.2499C70.9787 62.3469 60.0489 61.3515 60.0489 61.3515C43.479 47.7318 32.8888 40.9315 5.82796 34.0642C1.90011 25.3326 1.19044 20.6638 1.5109 14.5205C33.2096 29.855 50.8719 40.2151 80.3595 63.2499ZM80.3595 63.2499C80.8889 63.6635 81.4221 64.0811 81.9593 64.5029C88.8566 70.1705 97.1959 78.5153 97.1959 78.5153L103.053 79.9967C103.053 79.9967 92.788 70.0851 85.8955 63.7912C84.1917 63.6212 82.3091 63.4376 80.3595 63.2499Z" fill="#FFBB25" fill-opacity="0.5"/>
<path d="M1.73526 11.4313C38.5462 29.3728 57.3052 40.8246 85.8955 63.7912M1.73526 11.4313C5.98891 5.25817 9.94838 3.25686 18.6944 1.25106C42.5074 13.4375 55.195 20.6811 72.8628 36.6775C72.8628 36.6775 80.998 53.1679 85.8955 63.7912M1.73526 11.4313C1.64003 12.5141 1.56224 13.5362 1.5109 14.5205M85.8955 63.7912C92.788 70.0851 103.053 79.9967 103.053 79.9967L97.1959 78.5153C97.1959 78.5153 88.8566 70.1705 81.9593 64.5029C81.4221 64.0811 80.8889 63.6635 80.3595 63.2499M85.8955 63.7912C84.1917 63.6212 82.3091 63.4376 80.3595 63.2499M306.248 6.66928C260.245 2.4991 234.244 0.20469 187.383 1.23365C149.809 25.3481 129.887 78.1419 93.7712 152.302C146.172 158.383 170.594 162.536 209.625 172.001M306.248 6.66928L321.525 9.66861C325.23 15.3828 325.681 18.7005 324.253 24.754C316.406 33.1274 310.93 35.0248 300.495 36.6718M306.248 6.66928C304.632 8.92858 303.516 10.3588 300.86 13.4054M209.625 172.001C221.116 173.958 226.021 174.453 230.777 173.766C240.193 170.923 243.942 169.166 245.543 165.506C245.36 159.931 245.167 156.879 243.23 152.714C242.197 149.635 240.379 148.192 235.41 145.998M209.625 172.001L225.494 144.549M300.495 36.6718C296.067 29.6033 295.256 26.1949 297.736 21.4192M300.495 36.6718C291.551 36.193 285.508 36.9692 285.164 27.7576M297.736 21.4192C303.458 17.9405 306.903 17.3006 313.481 18.5721M297.736 21.4192L307.305 23.7539C312.575 23.6482 313.035 21.9149 313.481 18.5721M313.481 18.5721C308.817 15.433 306.146 13.9152 300.86 13.4054M285.164 27.7576C256.288 60.5018 245.643 103.828 225.494 144.549M285.164 27.7576C298.656 12.4573 288.388 23.1097 300.86 13.4054M235.41 145.998C230.406 150.147 228.686 152.854 228.019 158.513C231.211 164.189 233.844 163.487 238.435 162.727M235.41 145.998C233.482 144.525 231.234 144.252 225.494 144.549M1.5109 14.5205C1.19044 20.6638 1.90011 25.3326 5.82796 34.0642C32.8888 40.9315 43.479 47.7318 60.0489 61.3515C60.0489 61.3515 70.9787 62.3469 80.3595 63.2499M1.5109 14.5205C33.2096 29.855 50.8719 40.2151 80.3595 63.2499" stroke="#55534C"/>
</svg>
